<svg width="307.9" height="87.7" viewBox="0 0 307.9 87.7" xmlns="http://www.w3.org/2000/svg"><g id="svgGroup" stroke-linecap="round" fill-rule="evenodd" font-size="9pt" stroke="#000" stroke-width="0" fill="#45009e" style="stroke:#000;stroke-width:0;fill:#45009e"><path d="M 52.4 49.6 L 50.9 46.7 Q 51.972 44.709 53.571 41.429 A 346.683 346.683 0 0 0 54.6 39.3 A 99.553 99.553 0 0 0 57.124 33.552 A 126.991 126.991 0 0 0 59 28.6 A 3.335 3.335 0 0 1 58.088 26.848 A 4.854 4.854 0 0 1 58 25.9 A 8.311 8.311 0 0 1 59.314 21.434 A 10.235 10.235 0 0 1 59.6 21 A 9.922 9.922 0 0 1 60.345 20.048 Q 61.552 18.7 62.7 18.7 Q 63.9 18.7 64.45 20.05 A 17.83 17.83 0 0 1 64.664 20.6 Q 64.955 21.388 64.994 21.787 A 1.176 1.176 0 0 1 65 21.9 A 1.903 1.903 0 0 1 64.974 22.189 Q 64.891 22.715 64.55 23.7 A 421.504 421.504 0 0 0 64.341 24.306 Q 64.064 25.108 63.915 25.554 A 54.136 54.136 0 0 0 63.9 25.6 A 1.861 1.861 0 0 0 64.215 26.452 Q 64.586 27.02 65.386 27.575 A 8.056 8.056 0 0 0 65.65 27.75 Q 67.068 28.652 68.818 29.813 A 291.92 291.92 0 0 1 69.4 30.2 Q 71.5 31.6 73.1 33.7 Q 74.7 35.8 74.7 39 A 14.016 14.016 0 0 1 74.028 43.22 A 17.199 17.199 0 0 1 73.4 44.9 A 120.786 120.786 0 0 1 71.775 48.494 A 101.176 101.176 0 0 1 70.8 50.5 Q 69.923 52.254 69.638 53.689 A 6.732 6.732 0 0 0 69.5 55 A 4.038 4.038 0 0 0 69.547 55.64 Q 69.687 56.512 70.25 56.85 A 3.143 3.143 0 0 0 71.457 57.264 A 4.021 4.021 0 0 0 72 57.3 A 8.921 8.921 0 0 0 74.763 56.841 Q 75.863 56.484 77 55.85 Q 79.6 54.4 82.1 52.1 A 35.511 35.511 0 0 0 85.942 47.977 A 19.627 19.627 0 0 1 86.173 47.023 Q 86.73 44.893 87.75 42.65 A 37.799 37.799 0 0 1 93.331 33.896 A 42.329 42.329 0 0 1 93.8 33.35 Q 97.6 29 102.2 26.3 A 20.607 20.607 0 0 1 106.656 24.318 A 16.302 16.302 0 0 1 111.4 23.6 Q 114 23.6 116.35 24.95 A 4.252 4.252 0 0 1 118.213 27.208 Q 118.514 27.993 118.629 28.987 A 11.443 11.443 0 0 1 118.7 30.3 Q 118.7 34.1 116.5 37.4 A 21.182 21.182 0 0 1 112.766 41.607 A 26.246 26.246 0 0 1 110.6 43.3 Q 106.9 45.9 102.45 47.55 Q 98 49.2 93.5 49.7 Q 93.4 50.1 93.35 50.55 Q 93.312 50.889 93.303 51.541 A 32.377 32.377 0 0 0 93.3 52 A 5.546 5.546 0 0 0 93.309 52.296 Q 93.336 52.788 93.44 53.665 A 51.515 51.515 0 0 0 93.45 53.75 Q 93.598 54.981 94.279 56.358 A 11.466 11.466 0 0 0 94.3 56.4 Q 95 57.8 96.6 58.8 Q 97.819 59.562 99.735 59.743 A 13.44 13.44 0 0 0 101 59.8 A 16.172 16.172 0 0 0 106.799 58.689 A 20.826 20.826 0 0 0 109.45 57.45 Q 113.7 55.1 117.45 51.2 A 37.443 37.443 0 0 0 119.429 48.974 A 10.704 10.704 0 0 1 119.622 47.943 Q 119.808 47.185 120.1 46.6 Q 120.839 45.121 121.92 44.369 A 4.337 4.337 0 0 1 122.1 44.25 A 15.742 15.742 0 0 1 123.048 43.7 A 37.443 37.443 0 0 0 123.7 42.5 L 124.418 43.074 A 7.116 7.116 0 0 0 124.953 42.84 Q 125.245 42.697 125.476 42.542 A 2.788 2.788 0 0 0 125.9 42.2 Q 128.4 39.6 131.05 36.15 A 38.432 38.432 0 0 0 135.36 29.022 A 42.503 42.503 0 0 0 135.6 28.5 L 135.6 27.5 Q 135.6 24.221 136.507 22.521 A 4.117 4.117 0 0 1 136.95 21.85 A 5.211 5.211 0 0 1 137.931 20.911 A 3.632 3.632 0 0 1 140.1 20.2 A 3.794 3.794 0 0 1 140.739 20.25 Q 141.459 20.373 141.85 20.8 Q 142.4 21.4 142.5 22.2 A 3.539 3.539 0 0 1 142.459 22.721 Q 142.398 23.125 142.25 23.6 A 4.48 4.48 0 0 0 142.113 24.19 Q 142.007 24.815 142 25.676 A 15.237 15.237 0 0 0 142 25.8 Q 142 28.271 142.984 31.318 A 29.421 29.421 0 0 0 143.45 32.65 Q 144.9 36.5 146.35 40.8 Q 147.8 45.1 147.8 49.6 Q 147.8 50.8 147.7 51.8 Q 147.6 52.8 147.4 53.7 Q 150.386 52.929 153.28 50.442 A 21.717 21.717 0 0 0 153.5 50.25 A 18.95 18.95 0 0 0 154.99 48.759 A 19.627 19.627 0 0 1 155.373 47.023 Q 155.93 44.893 156.95 42.65 A 37.799 37.799 0 0 1 162.531 33.896 A 42.329 42.329 0 0 1 163 33.35 Q 166.8 29 171.4 26.3 A 20.607 20.607 0 0 1 175.856 24.318 A 16.302 16.302 0 0 1 180.6 23.6 Q 183.2 23.6 185.55 24.95 A 4.252 4.252 0 0 1 187.413 27.208 Q 187.714 27.993 187.829 28.987 A 11.443 11.443 0 0 1 187.9 30.3 Q 187.9 34.1 185.7 37.4 A 21.182 21.182 0 0 1 181.966 41.607 A 26.246 26.246 0 0 1 179.8 43.3 Q 176.1 45.9 171.65 47.55 Q 167.2 49.2 162.7 49.7 Q 162.6 50.1 162.55 50.55 Q 162.512 50.889 162.503 51.541 A 32.377 32.377 0 0 0 162.5 52 A 5.546 5.546 0 0 0 162.509 52.296 Q 162.536 52.788 162.64 53.665 A 51.515 51.515 0 0 0 162.65 53.75 Q 162.798 54.981 163.479 56.358 A 11.466 11.466 0 0 0 163.5 56.4 Q 164.2 57.8 165.8 58.8 Q 167.019 59.562 168.935 59.743 A 13.44 13.44 0 0 0 170.2 59.8 A 16.172 16.172 0 0 0 175.999 58.689 A 20.826 20.826 0 0 0 178.65 57.45 Q 182.9 55.1 186.65 51.2 A 37.443 37.443 0 0 0 191.683 44.663 A 77.069 77.069 0 0 0 192.245 42.67 A 84.824 84.824 0 0 0 192.5 41.7 Q 193.5 37.8 193.5 34.6 Q 193.99 34.04 194.847 33.48 A 12.608 12.608 0 0 1 195.65 33 Q 197.1 32.2 198.7 32.2 A 5.946 5.946 0 0 1 200.015 32.332 Q 201.837 32.747 202.14 34.465 A 4.242 4.242 0 0 1 202.2 35.2 A 9.352 9.352 0 0 1 202.164 35.966 Q 202.095 36.804 201.889 37.991 A 44.486 44.486 0 0 1 201.75 38.75 Q 201.3 41.1 200.5 44.1 Q 203.1 40.6 206.2 37.5 A 34.101 34.101 0 0 1 210.166 34.079 A 28.417 28.417 0 0 1 212.65 32.45 Q 216 30.5 219.4 30.5 A 10.093 10.093 0 0 1 221.868 30.783 A 6.547 6.547 0 0 1 225.75 33.4 Q 227.8 36.3 227.8 39.8 Q 227.8 42.8 226.8 45.4 Q 225.8 48 224.85 50.3 A 12.76 12.76 0 0 0 224.069 52.926 A 10.634 10.634 0 0 0 223.9 54.8 A 5.371 5.371 0 0 0 223.953 55.583 Q 224.099 56.573 224.65 57.05 Q 225.4 57.7 226.3 57.7 A 5.749 5.749 0 0 0 228.584 57.199 Q 229.415 56.841 230.268 56.228 A 13.114 13.114 0 0 0 231.3 55.4 Q 233.859 53.136 236.177 49.661 A 40.119 40.119 0 0 0 236.25 49.55 A 68.465 68.465 0 0 0 237.882 46.971 A 65.394 65.394 0 0 1 238.65 43.6 A 121.623 121.623 0 0 1 241.451 34.231 A 140.546 140.546 0 0 1 242.6 31 A 11.072 11.072 0 0 0 241.94 30.835 Q 241.598 30.759 241.212 30.693 A 19.853 19.853 0 0 0 240.95 30.65 Q 240 30.5 239.1 30.1 L 239.1 27 Q 240.7 27.2 241.75 27.3 Q 242.8 27.4 243.9 27.5 Q 246 22.2 248.45 17.25 Q 250.9 12.3 253.35 8.4 A 52.76 52.76 0 0 1 255.116 5.758 Q 256.002 4.521 256.852 3.516 A 23.921 23.921 0 0 1 258 2.25 Q 259.82 0.389 261.298 0.067 A 2.829 2.829 0 0 1 261.9 0 Q 262.9 0 263.8 0.75 A 2.431 2.431 0 0 1 264.636 2.202 A 3.649 3.649 0 0 1 264.7 2.9 Q 264.7 4.9 262.65 8.6 Q 260.6 12.3 257.6 17.25 A 145.143 145.143 0 0 0 252.857 25.723 A 163.31 163.31 0 0 0 251.8 27.8 L 253.4 27.8 L 254.9 27.8 A 222.408 222.408 0 0 0 259.087 27.763 A 161.505 161.505 0 0 0 262.85 27.65 Q 266.4 27.5 270.1 27.1 L 270.1 30.4 Q 264.6 30.9 260 31.2 Q 255.4 31.5 251.2 31.6 L 250.6 31.6 L 250 31.6 Q 247.9 36.5 246.35 41.65 A 36.276 36.276 0 0 0 244.937 48.769 A 31.809 31.809 0 0 0 244.8 51.7 A 20.627 20.627 0 0 0 244.881 53.6 Q 245.064 55.568 245.658 56.777 A 4.321 4.321 0 0 0 246.1 57.5 Q 247.309 59.08 249.814 59.192 A 8.719 8.719 0 0 0 250.2 59.2 Q 254.413 59.2 258.803 55.97 A 26.475 26.475 0 0 0 260.45 54.65 A 33.476 33.476 0 0 0 265.576 48.996 A 46.922 46.922 0 0 0 266.019 48.371 A 22.23 22.23 0 0 1 266.048 48.253 A 25.786 25.786 0 0 1 266.4 46.95 Q 267.4 43.6 269.15 40.7 A 20.909 20.909 0 0 1 270.879 38.234 A 15.382 15.382 0 0 1 273.05 36.05 Q 275.01 34.455 277.011 34.314 A 5.527 5.527 0 0 1 277.4 34.3 A 4.868 4.868 0 0 1 278.01 34.341 Q 278.486 34.402 279.05 34.55 Q 280 34.8 280.4 35.3 A 22.483 22.483 0 0 0 279.34 36.746 Q 278.825 37.508 278.301 38.395 A 40.159 40.159 0 0 0 277.95 39 Q 276.7 41.2 275.65 43.65 Q 274.6 46.1 274 48.6 A 23.167 23.167 0 0 0 273.555 50.964 A 17.067 17.067 0 0 0 273.4 53.2 A 8.781 8.781 0 0 0 273.505 54.602 Q 273.629 55.365 273.898 55.993 A 4.734 4.734 0 0 0 274.15 56.5 Q 274.893 57.788 276.765 57.8 A 5.502 5.502 0 0 0 276.8 57.8 A 4.314 4.314 0 0 0 278.195 57.546 Q 279.406 57.131 280.852 56.04 A 17.927 17.927 0 0 0 281.35 55.65 A 38.323 38.323 0 0 0 285.491 51.727 A 43.292 43.292 0 0 0 286.4 50.7 Q 283.2 47.8 281.8 44.35 A 17.843 17.843 0 0 1 280.795 40.797 Q 280.4 38.603 280.4 36 A 10.21 10.21 0 0 1 280.594 34.085 Q 280.771 33.16 281.109 32.143 A 20.211 20.211 0 0 1 281.45 31.2 A 11.587 11.587 0 0 1 284.561 26.753 A 13.625 13.625 0 0 1 284.85 26.5 A 7.984 7.984 0 0 1 288.016 24.883 Q 289.181 24.572 290.555 24.513 A 15.212 15.212 0 0 1 291.2 24.5 Q 293.801 24.5 295.469 25.378 A 5.116 5.116 0 0 1 297.25 26.9 Q 299 29.3 299 32.6 Q 299 36.3 297.05 40.9 Q 295.1 45.5 292.4 49.6 A 5.588 5.588 0 0 0 294.034 50.112 A 7.437 7.437 0 0 0 295.2 50.2 A 8.066 8.066 0 0 0 296.409 50.102 Q 297.016 50.009 297.696 49.83 A 17.798 17.798 0 0 0 298.8 49.5 A 11.767 11.767 0 0 0 301.386 48.254 A 15.113 15.113 0 0 0 302.9 47.15 A 10.567 10.567 0 0 0 305.157 44.527 A 13.817 13.817 0 0 0 306.1 42.7 L 307.9 44 A 20.961 20.961 0 0 1 306.003 47.502 Q 304.303 50 302.05 51.45 Q 298.468 53.756 295.03 53.799 A 10.437 10.437 0 0 1 294.9 53.8 Q 293.6 53.8 292.3 53.55 Q 291 53.3 289.9 52.9 Q 286.5 56.9 282.1 59.9 A 18.619 18.619 0 0 1 278.231 61.951 A 14.077 14.077 0 0 1 273.2 62.9 Q 270.386 62.9 268.686 61.746 A 5.21 5.21 0 0 1 267.05 59.95 Q 265.4 57 265.4 53.5 A 22.23 22.23 0 0 1 265.411 52.888 A 47.833 47.833 0 0 1 264.55 54 A 36.514 36.514 0 0 1 260.276 58.521 A 28.909 28.909 0 0 1 256.2 61.55 A 18.947 18.947 0 0 1 251.043 63.774 A 16.536 16.536 0 0 1 246.9 64.3 A 12.097 12.097 0 0 1 243.736 63.907 A 8.937 8.937 0 0 1 239.8 61.7 Q 237.564 59.547 237.18 55.542 A 18.251 18.251 0 0 1 237.1 53.8 A 28.045 28.045 0 0 1 237.112 53.111 A 29.219 29.219 0 0 1 234.55 56.4 A 22.432 22.432 0 0 1 231.45 59.25 Q 228.2 61.7 224.2 61.7 A 12.524 12.524 0 0 1 221.943 61.51 Q 219.659 61.091 218.25 59.75 Q 216.2 57.8 216.2 54.8 A 12.964 12.964 0 0 1 216.447 52.337 A 16.692 16.692 0 0 1 216.9 50.55 Q 217.6 48.3 218.3 46 A 16.474 16.474 0 0 0 218.88 43.373 A 13.465 13.465 0 0 0 219 41.6 Q 219 39.4 217.95 38.55 Q 216.9 37.7 215.5 37.7 A 8.23 8.23 0 0 0 212.318 38.371 Q 211.218 38.83 210.098 39.601 A 16.087 16.087 0 0 0 209.35 40.15 A 32.867 32.867 0 0 0 205.87 43.302 A 42.562 42.562 0 0 0 203.25 46.3 Q 200.3 50 197.7 54 A 259.891 259.891 0 0 0 195.559 57.347 Q 194.591 58.887 193.748 60.284 A 151.818 151.818 0 0 0 193.2 61.2 Q 191.3 61.2 189.6 60.55 A 6.334 6.334 0 0 1 187.087 58.777 A 7.831 7.831 0 0 1 186.7 58.3 A 2.68 2.68 0 0 1 186.771 58.04 Q 186.956 57.451 187.564 55.95 A 129.046 129.046 0 0 1 187.85 55.25 A 124.227 124.227 0 0 0 188.24 54.289 A 35.585 35.585 0 0 1 187.95 54.6 A 33.358 33.358 0 0 1 181.222 60.131 A 30.167 30.167 0 0 1 178.55 61.6 Q 173.4 64.1 168 64.1 Q 163.082 64.1 159.906 62.063 A 10.469 10.469 0 0 1 158.15 60.65 A 11.638 11.638 0 0 1 154.71 52.633 A 15.609 15.609 0 0 1 146.5 56.7 A 12.098 12.098 0 0 1 144.094 60.602 A 11.246 11.246 0 0 1 141.25 62.8 A 16.362 16.362 0 0 1 134.694 64.73 A 20.012 20.012 0 0 1 133 64.8 A 19.988 19.988 0 0 1 129.793 64.558 Q 126.952 64.095 124.95 62.75 Q 121.9 60.7 120.6 57.55 A 16.762 16.762 0 0 1 119.516 53.762 A 35.585 35.585 0 0 1 118.75 54.6 A 33.358 33.358 0 0 1 112.022 60.131 A 30.167 30.167 0 0 1 109.35 61.6 Q 104.2 64.1 98.8 64.1 Q 93.882 64.1 90.706 62.063 A 10.469 10.469 0 0 1 88.95 60.65 A 11.638 11.638 0 0 1 85.577 53.664 A 33.948 33.948 0 0 1 79.789 58.695 A 31.263 31.263 0 0 1 78.3 59.65 Q 73.9 62.3 69.4 62.3 A 11.476 11.476 0 0 1 66.822 62.026 A 7.963 7.963 0 0 1 63.4 60.35 A 6.387 6.387 0 0 1 61.124 55.756 A 8.911 8.911 0 0 1 61.1 55.1 A 12.871 12.871 0 0 1 61.495 52.012 Q 61.822 50.688 62.419 49.287 A 21.489 21.489 0 0 1 62.5 49.1 Q 63.9 45.9 65.35 42.8 Q 66.406 40.542 66.693 38.656 A 9.019 9.019 0 0 0 66.8 37.3 A 5.805 5.805 0 0 0 66.454 35.263 A 5.184 5.184 0 0 0 65.3 33.45 Q 63.8 31.9 61.8 30.9 Q 59.6 36.4 56.85 41.55 Q 54.1 46.7 52.4 49.6 Z M 3.122 87.573 A 3.249 3.249 0 0 0 4 87.7 A 2.308 2.308 0 0 0 5.047 87.447 A 3.12 3.12 0 0 0 5.7 87 A 5.411 5.411 0 0 0 6.225 86.502 Q 7.626 84.991 8.85 81.7 A 61.701 61.701 0 0 0 9.527 79.778 Q 10.089 78.099 10.643 76.161 A 122.706 122.706 0 0 0 11.7 72.2 Q 13.1 66.6 14.65 60.05 Q 16.2 53.5 18.1 46.9 Q 19 44.9 20.7 42.25 Q 22.4 39.6 24.6 37.15 A 25.254 25.254 0 0 1 25.508 36.19 A 21.77 21.77 0 0 1 29.35 33.1 Q 31.9 31.5 34.4 31.5 A 6.605 6.605 0 0 1 35.443 31.579 A 4.403 4.403 0 0 1 38.65 33.7 A 8.816 8.816 0 0 1 39.703 36.263 A 11.227 11.227 0 0 1 40 38.9 A 15.908 15.908 0 0 1 39.752 41.679 A 18.765 18.765 0 0 1 38.5 45.8 A 21.461 21.461 0 0 1 37.553 47.733 A 24.019 24.019 0 0 1 34.2 52.35 Q 31.4 55.4 27.55 57.3 A 18.667 18.667 0 0 1 24.673 58.433 A 21.122 21.122 0 0 1 19 59.3 A 9.683 9.683 0 0 0 18.241 59.329 A 7.573 7.573 0 0 0 17.35 59.45 Q 16.811 59.558 16.659 59.95 A 0.966 0.966 0 0 0 16.6 60.3 A 1.118 1.118 0 0 0 16.788 60.909 Q 17.198 61.552 18.5 62.1 Q 20.4 62.9 23.6 62.9 A 23.717 23.717 0 0 0 23.769 62.899 A 20.33 20.33 0 0 0 33.5 60.45 Q 38 58 41.2 54.15 A 34.418 34.418 0 0 0 41.787 53.424 A 30.456 30.456 0 0 0 46.15 45.95 A 26.255 26.255 0 0 0 47.315 42.36 A 19.695 19.695 0 0 0 47.9 37.7 A 15.726 15.726 0 0 0 47.674 34.979 A 11.133 11.133 0 0 0 44.7 29 A 10.533 10.533 0 0 0 40.756 26.401 A 11.904 11.904 0 0 0 36.6 25.7 Q 33.1 25.7 30.1 27.35 Q 27.1 29 24.65 31.6 Q 22.2 34.2 20.3 37.1 A 130.944 130.944 0 0 0 20.703 35.063 Q 20.888 34.088 21.038 33.202 A 70.296 70.296 0 0 0 21.35 31.2 A 88.979 88.979 0 0 0 21.374 31.03 Q 21.616 29.275 21.678 28.291 A 9.513 9.513 0 0 0 21.7 27.7 Q 21.7 25.7 20.3 24.05 A 4.081 4.081 0 0 0 19.045 23.062 Q 18.348 22.702 17.45 22.538 A 9.192 9.192 0 0 0 15.8 22.4 A 8.584 8.584 0 0 0 15.595 22.402 Q 14.642 22.425 14.203 22.666 A 0.734 0.734 0 0 0 13.9 22.95 A 2.452 2.452 0 0 0 13.796 23.168 Q 13.564 23.715 13.4 24.7 A 1557.043 1557.043 0 0 1 12.674 30.306 Q 12.324 32.975 11.998 35.376 A 796.17 796.17 0 0 1 11.25 40.75 A 405.894 405.894 0 0 1 10.983 42.591 Q 10.166 48.124 9.35 52.55 A 170.134 170.134 0 0 1 9.109 53.831 A 153.946 153.946 0 0 1 7.2 62.45 Q 6 67.2 4.25 72.55 Q 2.5 77.9 0 85.2 A 0.925 0.925 0 0 0 0.072 85.388 Q 0.245 85.734 0.75 86.2 Q 1.4 86.8 2.3 87.25 Q 2.722 87.461 3.122 87.573 Z M 94.6 46 A 14.761 14.761 0 0 0 96.99 45.508 Q 98.6 45.044 100.4 44.2 A 32.186 32.186 0 0 0 106.365 40.543 A 35.542 35.542 0 0 0 106.55 40.4 A 24.602 24.602 0 0 0 109.827 37.349 A 20.865 20.865 0 0 0 111.4 35.35 A 11.646 11.646 0 0 0 112.682 32.977 A 8.667 8.667 0 0 0 113.3 29.8 Q 113.3 28.921 113.045 28.489 A 0.947 0.947 0 0 0 112.9 28.3 A 1.185 1.185 0 0 0 112.478 28.036 Q 112.124 27.9 111.6 27.9 Q 109.506 27.9 107.245 29.268 A 13.501 13.501 0 0 0 106.8 29.55 A 23.185 23.185 0 0 0 104.019 31.723 A 30.335 30.335 0 0 0 101.9 33.85 Q 99.5 36.5 97.6 39.7 Q 95.7 42.9 94.6 46 Z M 163.8 46 A 14.761 14.761 0 0 0 166.19 45.508 Q 167.8 45.044 169.6 44.2 A 32.186 32.186 0 0 0 175.565 40.543 A 35.542 35.542 0 0 0 175.75 40.4 A 24.602 24.602 0 0 0 179.027 37.349 A 20.865 20.865 0 0 0 180.6 35.35 A 11.646 11.646 0 0 0 181.882 32.977 A 8.667 8.667 0 0 0 182.5 29.8 Q 182.5 28.921 182.245 28.489 A 0.947 0.947 0 0 0 182.1 28.3 A 1.185 1.185 0 0 0 181.678 28.036 Q 181.324 27.9 180.8 27.9 Q 178.706 27.9 176.445 29.268 A 13.501 13.501 0 0 0 176 29.55 A 23.185 23.185 0 0 0 173.219 31.723 A 30.335 30.335 0 0 0 171.1 33.85 Q 168.7 36.5 166.8 39.7 Q 164.9 42.9 163.8 46 Z M 139.5 53.5 Q 139.7 52.8 139.75 51.85 Q 139.8 50.9 139.8 50.4 Q 139.7 45.9 138.6 41.5 Q 137.5 37.1 136.4 32.5 Q 134.6 35.6 132.2 39.2 Q 130.363 41.956 128.701 43.892 A 28.346 28.346 0 0 1 127.7 45 Q 129.3 47.7 132.4 50.1 Q 135.5 52.5 139.5 53.5 Z M 289 47.5 Q 291.4 44 293.1 40 A 23.844 23.844 0 0 0 294.232 36.732 Q 294.8 34.566 294.8 32.6 A 12.014 12.014 0 0 0 294.748 31.436 Q 294.634 30.27 294.272 29.548 A 2.778 2.778 0 0 0 294.1 29.25 A 2.262 2.262 0 0 0 292.461 28.231 A 3.297 3.297 0 0 0 292 28.2 A 3.136 3.136 0 0 0 290.47 28.629 Q 289.303 29.276 288.1 30.9 A 9.917 9.917 0 0 0 286.381 34.822 A 14.007 14.007 0 0 0 286.1 37.7 A 14.904 14.904 0 0 0 286.205 39.402 Q 286.381 40.925 286.85 42.8 A 16.658 16.658 0 0 0 287.473 44.788 Q 288.103 46.411 289 47.5 Z M 132.3 60.4 Q 134.3 60.4 136 59.4 A 6.971 6.971 0 0 0 138.431 56.975 A 8.521 8.521 0 0 0 138.7 56.5 Q 134.6 55.6 131.3 53.3 Q 128.551 51.384 126.843 49.399 A 15.316 15.316 0 0 1 126.2 48.6 A 1.526 1.526 0 0 0 125.092 49.545 Q 124.818 50.162 124.801 51.165 A 7.924 7.924 0 0 0 124.8 51.3 Q 124.8 54.6 126.7 57.5 Q 128.6 60.4 132.3 60.4 Z" vector-effect="non-scaling-stroke"/></g></svg>